<svg width="19" height="30" viewBox="0 0 19 30" fill="none" xmlns="http://www.w3.org/2000/svg">
<g opacity="0.5" clip-path="url(#clip0)">
<path d="M1.53445 3.07239C5.69108 6.92781 9.78746 10.7832 13.8838 14.6387C14.4863 15.1808 15.0284 15.723 15.6308 16.2652C15.6308 15.4218 15.6308 14.5784 15.6308 13.735C11.5344 17.5905 7.43806 21.4459 3.28144 25.3013C2.67903 25.8435 2.13686 26.3856 1.53445 26.9278C-0.1523 28.4941 2.37782 31.0844 4.06457 29.4579C8.2212 25.6628 12.3176 21.8073 16.414 17.8917C17.0164 17.3495 17.5585 16.8073 18.161 16.2652C18.8838 15.6025 18.8838 14.3375 18.161 13.735C14.0646 9.87962 9.96818 6.0242 5.81156 2.16878C5.20915 1.62661 4.66698 1.08444 4.06457 0.542271C2.43806 -1.08423 -0.1523 1.44589 1.53445 3.07239Z" fill="#094989"/>
</g>
<defs>
<clipPath id="clip0">
<rect width="17.7108" height="30" fill="white" transform="translate(18.7031 30) rotate(-180)"/>
</clipPath>
</defs>
</svg>
