<svg width="19" height="30" viewBox="0 0 19 30" fill="none" xmlns="http://www.w3.org/2000/svg">
<g opacity="0.5" clip-path="url(#clip0)">
<path d="M17.8628 26.9276C13.7061 23.0722 9.60976 19.2168 5.51337 15.3613C4.91096 14.8192 4.36879 14.277 3.76638 13.7348C3.76638 14.5782 3.76638 15.4216 3.76638 16.265C7.86277 12.4095 11.9592 8.55411 16.1158 4.69869C16.7182 4.15652 17.2604 3.61435 17.8628 3.07218C19.5495 1.50592 17.0194 -1.08444 15.3326 0.542063C11.176 4.33724 7.07964 8.19267 2.98325 12.1083C2.38084 12.6505 1.83867 13.1927 1.23626 13.7348C0.513369 14.3975 0.513369 15.6625 1.23626 16.265C5.33265 20.1204 9.42903 23.9758 13.5857 27.8312C14.1881 28.3734 14.7302 28.9156 15.3326 29.4577C16.9592 31.0842 19.5495 28.5541 17.8628 26.9276Z" fill="#094989"/>
</g>
<defs>
<clipPath id="clip0">
<rect width="17.7108" height="30" fill="white" transform="translate(0.694092)"/>
</clipPath>
</defs>
</svg>
