<svg width="64" height="64" viewBox="0 0 64 64" fill="none" xmlns="http://www.w3.org/2000/svg">
<circle cx="32" cy="32" r="32" fill="#094989"/>
<g clip-path="url(#clip0)">
<path d="M20.0833 35.1051L41.6953 35.1051L33.4197 43.145C32.9864 43.566 32.9696 44.2655 33.3823 44.7075C33.7945 45.1489 34.4803 45.1666 34.9142 44.7456L44.3652 35.5632C44.7741 35.1455 45 34.5908 45 34.0002C45 33.4101 44.7741 32.8548 44.3462 32.4189L34.9136 23.2553C34.704 23.0514 34.4353 22.9503 34.1667 22.9503C33.8807 22.9503 33.5947 23.0652 33.3818 23.2934C32.969 23.7354 32.9858 24.4343 33.4192 24.8553L41.7294 32.8952L20.0833 32.8952C19.4853 32.8952 19 33.3902 19 34.0002C19 34.6101 19.4853 35.1051 20.0833 35.1051Z" fill="white"/>
</g>
<defs>
<clipPath id="clip0">
<rect width="26" height="26" fill="white" transform="translate(45 47) rotate(-180)"/>
</clipPath>
</defs>
</svg>
