<svg width="21" height="20" viewBox="0 0 21 20" fill="none" xmlns="http://www.w3.org/2000/svg">
<path d="M0.353271 4.82991C0.385478 3.28402 0.997394 1.99577 1.99578 0.836352C2.41446 0.35326 3.02638 0.256642 3.57388 0.0956112C3.83153 0.0311989 4.08918 -0.00100722 4.34683 -0.0332133C4.7011 -0.0976256 4.99095 0.0311989 5.15198 0.35326C5.44184 0.836352 5.69949 1.31944 5.98934 1.83474C6.40802 2.57548 6.7945 3.34843 7.30979 4.05696C7.37421 4.12138 7.40641 4.21799 7.47082 4.31461C7.69627 4.66888 7.66406 5.02315 7.37421 5.34521C7.05214 5.69948 6.73008 6.02154 6.34361 6.31139C5.98934 6.60125 5.63508 6.8911 5.31301 7.21316C5.05537 7.47081 4.99095 7.76067 5.15198 8.08273C5.60287 9.01671 6.15037 9.88627 6.76229 10.7236C7.95392 12.3661 9.4676 13.6222 11.2389 14.6206C11.5932 14.8138 11.9153 15.0715 12.3017 15.2003C12.5916 15.2969 12.817 15.2647 13.0425 15.0715C13.3968 14.7816 13.6866 14.4273 13.9443 14.0731C14.2341 13.7188 14.524 13.3645 14.8782 13.0425C15.3291 12.656 15.619 12.5916 16.1021 12.9136C17.2293 13.6866 18.4531 14.2985 19.6447 14.9426C20.3533 15.3291 20.4177 15.4901 20.2889 16.2953C20.2567 16.5529 20.1922 16.8428 20.1278 17.1004C19.999 17.7768 19.6125 18.2921 19.065 18.6785C17.9378 19.4837 16.714 20.0312 15.2969 19.9668C14.6528 19.9346 14.0087 19.7736 13.429 19.5803C12.656 19.2905 11.8509 19.0328 11.0779 18.7108C9.4354 18.0344 8.05053 17.036 6.73008 15.8444C5.11978 14.4273 3.70271 12.8492 2.54329 11.0457C1.80255 9.88627 1.38387 8.63023 0.932982 7.3742C0.61092 6.56904 0.353271 5.73168 0.353271 4.82991Z" fill="#094989"/>
</svg>
