<svg width="15" height="21" viewBox="0 0 15 21" fill="none" xmlns="http://www.w3.org/2000/svg">
<path d="M7.69358 0.953125C7.46667 0.953125 7.33701 0.953125 7.33701 0.953125C7.33701 0.953125 7.20735 0.953125 6.98045 0.953125C1.56716 1.37452 -1.6095 6.65815 0.951274 11.0017L6.62388 20.5641C6.94803 21.1152 7.72599 21.1152 8.05014 20.5641L13.7552 11.0017C16.3159 6.65815 13.1393 1.37452 7.69358 0.953125ZM7.33701 9.80239C5.81351 9.80239 4.58174 8.57063 4.58174 7.04713C4.58174 5.52363 5.81351 4.29186 7.33701 4.29186C8.86051 4.29186 10.0923 5.52363 10.0923 7.04713C10.1247 8.57063 8.86051 9.80239 7.33701 9.80239Z" fill="#094989"/>
</svg>
