<svg width="23" height="21" viewBox="0 0 23 21" fill="none" xmlns="http://www.w3.org/2000/svg">
<path d="M21.3881 0.259277H1.35318C0.863672 0.259277 0.444092 0.678858 0.444092 1.16837V19.3852C0.444092 19.8747 0.863672 20.2942 1.35318 20.2942H21.3881C21.8777 20.2942 22.2972 19.8747 22.2972 19.3852V1.16837C22.2623 0.678858 21.8777 0.259277 21.3881 0.259277ZM20.0944 6.16837C18.9756 6.79774 17.8567 7.46207 16.7028 8.09144L12.7867 10.3292C12.1574 10.6789 11.493 10.9586 10.7588 10.7138C10.3742 10.6089 9.98955 10.3292 9.6399 10.1194C7.29724 8.79075 4.98955 7.46207 2.64689 6.1334C1.77276 5.67886 2.54199 4.31522 3.45108 4.80473C4.535 5.4341 5.61892 6.02851 6.66787 6.65788C7.99654 7.42711 9.29025 8.16137 10.6189 8.9306C10.9336 9.10543 11.2483 9.38515 11.6329 9.21033C11.9126 9.07047 12.1923 8.89564 12.4721 8.75578C14.7448 7.46207 17.0175 6.1334 19.2902 4.8397C20.1644 4.31522 20.9686 5.67886 20.0944 6.16837Z" fill="#094989"/>
</svg>
