<svg width="100" height="34" viewBox="0 0 100 34" fill="none" xmlns="http://www.w3.org/2000/svg">
<path d="M9.65902 21.8494L3.59715 10.8914H10.7082L13.889 17.7027L19.2514 10.8914H26.5123L16.82 22.9152L22.6987 33.6067H15.7709L12.59 27.0619L7.4108 33.6067H0L9.65902 21.8494ZM55.4728 17.8525C55.8391 15.7375 54.69 15.3046 52.3253 15.3379C48.2618 15.3712 47.8788 18.0024 47.3292 20.8169C47.2959 20.7835 54.74 22.0326 55.4728 17.8525ZM52.7416 10.4917C57.6211 10.4584 61.951 11.824 61.6179 17.0365C60.9518 27.3617 48.4117 25.3633 46.813 24.7304C46.2134 28.211 47.0794 29.0936 50.1103 29.1269C52.625 29.1936 56.7384 28.8272 59.403 28.3942L58.6702 32.6575C55.2729 33.69 51.5592 34.2063 46.8296 33.9231C41.3839 33.6567 39.6519 29.1103 41.2007 20.7836C42.5163 13.8224 44.4148 10.525 52.7416 10.4917ZM42.9993 11.7407C43.2991 11.4409 43.5988 11.1911 43.9319 10.9247H34.8224L35.0889 9.29265C35.6385 5.66219 35.8716 4.56305 38.3863 4.59636L42.2332 4.62967L42.7828 1.03252C41.6337 0.482951 39.4854 0 37.5703 0C32.5409 0 30.2427 1.99842 29.3101 7.8771L28.8272 10.908L25.3133 15.4877H28.0445L25.0802 33.6234H31.0754L34.0397 15.4877H40.6678C41.234 14.0389 41.9668 12.7899 42.9993 11.7407ZM80.1532 28.9604H90.8448C91.2111 28.9604 92.3269 28.9271 92.5767 27.5116L92.7932 26.3625C92.9098 25.4299 92.7266 24.9136 91.4609 24.9136H86.3983C82.3681 24.9136 80.1033 22.6987 80.8027 18.3188L81.1358 16.2871C81.6853 12.69 83.6171 10.6582 88.0137 10.6582C92.3769 10.6582 98.3055 10.7748 99.8876 11.8073L99.2881 15.5877H89.0295C87.4808 15.5877 87.1477 16.3704 87.0311 17.1864L86.8479 18.3022C86.5482 19.9675 87.5807 19.751 88.3967 19.751H93.6092C97.9725 19.751 99.4213 22.782 98.8717 26.0794L98.5054 28.6773C97.7726 33.3403 94.6251 33.9731 91.9939 33.9731C87.664 33.9731 80.9692 33.7899 79.5537 32.7074L80.1532 28.9604ZM79.3039 15.9707C79.6703 13.6725 80.5196 11.9405 81.8519 10.7582C79.7868 10.7248 77.855 10.7248 77.4054 10.7248C74.591 10.7248 72.2262 12.2736 70.4109 13.7891L69.928 10.9413H64.8986L61.3015 33.6234H67.2967L69.5616 19.1182C71.4101 17.0032 73.2587 16.6035 75.7401 16.6035C76.1897 16.6035 77.5553 16.6035 79.1873 16.6368C79.204 16.6368 79.3039 15.9707 79.3039 15.9707Z" fill="white"/>
</svg>
